<svg width="89" height="89" viewBox="0 0 89 89" fill="none" xmlns="http://www.w3.org/2000/svg">
    <path fill-rule="evenodd" clip-rule="evenodd" d="M89 44.0184C89 19.7238 69.0603 0 44.5002 0C19.9398 0 0 19.7238 0 44.0184C0 68.3125 19.9398 88.0364 44.5002 88.0364C69.0603 88.0364 89 68.3125 89 44.0184Z" fill="#3E4C45"/>
    <path fill-rule="evenodd" clip-rule="evenodd" d="M89 44.0184C89 19.7238 69.0603 0 44.5002 0C19.9398 0 0 19.7238 0 44.0184C0 68.3125 19.9398 88.0364 44.5002 88.0364C69.0603 88.0364 89 68.3125 89 44.0184ZM85.7996 44.0184C85.7996 66.5655 67.2942 84.8707 44.5002 84.8707C21.7062 84.8707 3.2004 66.5655 3.2004 44.0184C3.2004 21.4712 21.7062 3.16571 44.5002 3.16571C67.2942 3.16571 85.7996 21.4712 85.7996 44.0184Z" fill="#3E4C45"/>
    <path d="M59.1784 14.996C59.1784 13.9069 59.0091 13.0127 58.6697 12.3164C58.6697 11.8739 58.9846 10.9416 59.6188 9.51789C59.7567 9.20081 59.9079 9.20771 60.065 9.53067C60.2476 9.91614 60.6677 10.9724 61.3224 12.7008C62.0194 14.5048 62.422 15.6112 62.5352 16.0281C62.6238 16.3452 62.6727 16.5814 62.6727 16.7365C62.6727 17.2342 62.1902 16.9348 61.2215 15.8405C61.1084 15.6854 61.0525 15.7542 61.0525 16.0457C61.0525 16.1455 61.3539 20.3294 61.9691 28.5922C62.5854 36.8615 62.8938 41.4194 62.8938 42.2709C62.8938 44.8814 62.4845 47.1887 61.6674 49.191C61.4984 49.5945 61.3595 49.887 61.2596 50.0666C61.0962 50.3216 61.0019 50.3526 60.9705 50.1665C60.9202 49.9734 60.9394 49.5513 61.0211 48.8981C61.1206 47.997 61.1712 46.9525 61.1712 45.7584C61.1712 44.6953 60.8381 39.5346 60.1712 30.2774C59.5056 21.0257 59.1784 15.9282 59.1784 14.996Z" fill="#FFB000" fill-opacity="0.35"/>
    <path d="M50.6408 39.9815C51.7278 39.9815 52.7837 39.5645 53.8086 38.7314C54.1045 38.4836 54.2553 37.5874 54.2553 36.0331C54.2553 35.0889 54.0106 31.2964 53.5187 24.6497C53.0293 18.0038 52.7904 14.087 52.7904 12.8924C52.7904 11.8106 52.6153 10.9277 52.275 10.2248C52.275 9.84593 52.5885 8.91334 53.2296 7.42783C53.2991 7.24711 53.362 7.15924 53.4315 7.15924C53.5011 7.15924 53.5815 7.25955 53.6704 7.45933C53.8531 7.84397 54.2738 8.90174 54.9333 10.6301C55.6129 12.4323 56.0278 13.5332 56.1594 13.9369C56.2281 14.2793 56.2666 14.5155 56.2666 14.6448C56.2666 15.1431 55.7889 14.8521 54.8327 13.7695C54.7204 13.6144 54.6634 13.6816 54.6634 13.975C54.6634 14.0422 54.878 16.9958 55.3113 22.8458C55.7387 28.6909 55.9582 32.1784 55.9582 33.3033C55.9582 36.562 55.3674 39.1302 54.1866 40.9945C53.1851 42.5604 52.0094 43.3496 50.6601 43.3571V43.3728C50.1883 43.44 49.7173 43.4425 49.2463 43.3728V43.3571C47.6465 43.3546 46.0844 42.7154 44.5533 41.4355C43.132 40.1175 41.7056 38.806 40.2734 37.488C40.0907 37.3329 39.9776 37.2517 39.9332 37.2517C39.8762 37.2517 39.9198 37.42 40.0714 37.7549C40.5935 38.9486 40.85 39.8 40.85 40.3048C40.85 42.2073 40.2977 43.6431 39.1848 44.6196C38.387 45.3284 36.5894 46.2726 33.7794 47.4422V47.4414C32.0555 48.1709 30.7633 48.7429 29.9102 49.1425C28.2073 49.9267 27.0315 50.5675 26.3962 51.064C25.2272 51.9651 23.531 53.6885 21.2993 56.2252C19.9737 57.7414 18.6343 58.5065 17.2962 58.5065C16.1708 58.5065 15.1899 58.0033 14.347 57.0019C13.4618 55.9574 13.0211 54.6825 13.0211 53.1713C13.0211 51.0947 13.8819 48.3848 15.6114 45.0465C15.793 44.6983 15.9319 44.5243 16.0318 44.5243C16.0821 44.5367 16.1013 44.5798 16.1013 44.6536C16.1013 44.9968 15.7301 46.159 14.9759 48.1552C14.2283 50.1505 13.8574 51.7288 13.8574 52.8853C13.8574 53.7747 14.0649 54.4843 14.4863 55.0116C14.9256 55.5836 15.5489 55.877 16.3398 55.877C17.7421 55.877 19.1566 55.1682 20.5887 53.7623C21.4944 52.6938 22.4055 51.6302 23.3099 50.5608C24.4922 49.2428 26.0451 48.0673 27.9676 47.0352C29.0872 46.4301 31.0256 45.553 33.7794 44.4057V44.4007C36.7461 43.1589 38.6954 42.194 39.6256 41.5168C39.8954 41.3186 39.9893 41.0509 39.8954 40.7085C39.3985 38.9113 37.3503 36.5172 33.7476 33.528C30.304 30.7791 26.8597 28.0377 23.4157 25.2963C23.2956 25.196 23.2327 24.8238 23.2327 24.183C23.2327 23.3507 23.3214 22.4927 23.5033 21.6032C23.6977 20.6143 23.9366 19.9867 24.2198 19.7322C26.1624 17.9964 30.3099 15.696 36.6581 12.8302C43.0884 9.91972 47.3373 8.4657 49.393 8.4657C50.0023 8.4657 50.4229 8.58424 50.6492 8.82547C50.8822 9.06836 50.9953 9.4787 50.9953 10.0631C50.9953 11.4003 50.1841 13.0665 48.5759 15.0568C47.9717 15.7341 47.3624 16.4114 46.7523 17.0953C45.7852 18.2086 45.1307 19.1163 44.7921 19.8126C44.5659 20.2852 44.4209 20.5214 44.3639 20.5214C44.3077 20.5214 44.3396 20.2039 44.4653 19.5764C44.534 19.2282 44.8039 18.6256 45.2698 17.7726C45.6914 16.9834 46.0048 16.4736 46.2185 16.2373C48.0412 14.1914 49.1282 12.8427 49.4927 12.2019C49.5313 12.1397 49.543 12.0726 49.543 12.0038C49.543 11.6174 49.0343 11.4309 48.0102 11.4309C46.3886 11.4309 42.5412 12.8302 36.4704 15.6288C30.4046 18.4258 26.2496 20.7262 24.0128 22.5284C23.8679 22.6544 23.8863 22.7596 24.0816 22.8458C26.0669 24.052 28.0229 25.2963 29.9462 26.5762C34.5722 29.6799 38.6635 32.7388 42.2336 35.7538C43.3147 36.6863 44.3899 37.6256 45.4701 38.5698C46.7448 39.5082 48.0018 39.9823 49.2321 39.9815V39.9749C49.7156 40.0603 50.1849 40.0619 50.6408 39.9815Z" fill="#FFB000" fill-opacity="0.35"/>
    <path d="M25.2823 38.5997C24.6796 36.7529 24.2581 34.888 24.0193 32.998C23.9756 32.6688 23.9442 32.4688 23.9184 32.388C23.8503 32.1396 23.7057 31.8726 23.4791 31.5797L24.2459 29.7394C24.3657 29.4344 24.4792 29.2863 24.5665 29.2863C24.6482 29.2863 24.7805 29.4344 24.9753 29.7394L26.9357 32.8429C27.2004 33.2584 27.3257 33.5631 27.3257 33.7561C27.3257 33.8926 27.2629 33.9613 27.1253 33.9613C26.885 33.9613 26.4583 33.763 25.8431 33.3703C26.0191 34.5575 26.4147 36.0686 27.0366 37.8903C27.0366 38.0143 26.8362 38.1763 26.4335 38.3814C26.0313 38.5811 25.7163 38.6861 25.4841 38.6861C25.371 38.6861 25.3085 38.6554 25.2823 38.5997Z" fill="#FFB000" fill-opacity="0.35"/>
    <path d="M30.8266 39.8112C31.2673 39.8112 31.4935 39.6924 31.4935 39.4565C31.4935 39.1083 31.1786 38.8033 30.5511 38.5429C30.086 38.3553 29.3317 38.3498 28.288 38.5294C28.8404 39.3822 29.6889 39.8112 30.8266 39.8112ZM10.7142 48.7323C9.58916 48.7323 8.6083 48.2291 7.76676 47.2281C6.88018 46.1836 6.43951 44.9087 6.43951 43.3975C6.43951 41.321 7.30165 38.6102 9.02977 35.2722C9.21134 34.9241 9.35032 34.7503 9.44984 34.7503C9.50047 34.7555 9.51932 34.8056 9.51932 34.8809C9.51932 35.2225 9.14849 36.3855 8.39425 38.3809C7.64664 40.3766 7.27581 41.9551 7.27581 43.1129C7.27581 43.9885 7.48288 44.698 7.90434 45.2379C8.35723 45.8098 8.97948 46.1027 9.75817 46.1027C11.047 46.1027 12.2541 45.6858 13.3918 44.8534C14.7871 43.6594 16.1881 42.4653 17.5834 41.2778C20.1042 39.1636 22.6179 37.5471 25.1195 36.4352L26.7031 35.7258C28.0425 35.2657 29.1924 35.0363 30.1485 35.0363C31.1101 35.0363 31.8769 35.4342 32.436 36.2425C33.002 37.0438 33.2845 38.107 33.2845 39.4185C33.2845 40.5127 33.0457 41.4153 32.5683 42.1237C32.0896 42.8321 31.4555 43.1868 30.6764 43.1868C29.5947 43.1868 28.5513 42.6649 27.5394 41.6325C26.7851 40.8554 26.2257 40.0216 25.8493 39.1325C24.0011 39.8609 21.8759 41.1604 19.4945 43.0252C17.7402 44.4431 15.9998 45.8599 14.2595 47.2778C12.9637 48.2481 11.7824 48.7323 10.7142 48.7323Z" fill="#FFB000" fill-opacity="0.35"/>
    <path d="M23.5288 45.8003V47.7649C23.5288 47.92 23.4904 48.0077 23.4209 48.0454C23.3214 48.0941 22.7484 48.0454 21.7186 47.8958C20.6809 47.7404 20.1407 47.6219 20.097 47.5287C19.9263 47.1874 19.9141 46.3035 20.0656 44.887C20.0778 44.7129 20.1473 44.6373 20.273 44.6563C21.1907 44.8248 22.2085 44.9799 23.3214 45.1163C23.2956 44.3392 23.3092 43.6619 23.365 43.083C23.3773 42.9033 23.4468 42.8294 23.5725 42.8536C24.6228 43.0588 25.6784 43.2204 26.7466 43.3327C26.8038 43.3379 26.8352 43.4 26.8352 43.5119V45.9688C26.8352 46.1242 26.7968 46.2172 26.7273 46.2482C26.6331 46.2914 26.1557 46.2551 25.2884 46.1363C24.4206 46.0175 23.8302 45.9056 23.5288 45.8003Z" fill="#FFB000" fill-opacity="0.35"/>
    <path d="M32.2068 61.9526C32.2068 62.5245 31.9683 63.1777 31.491 63.9117C31.0011 64.6768 30.3722 65.3282 29.5988 65.8694C29.2908 66.0812 29.1092 66.1931 29.052 66.1931C29.0397 66.1931 29.0397 66.1865 29.0397 66.1744C29.0397 66.1313 29.1651 65.9624 29.4298 65.6833C30.6998 64.3096 31.3409 63.395 31.3409 62.9294C31.3409 62.4935 31.1321 62.2762 30.7242 62.2762C30.4979 62.2762 30.2905 62.3384 30.1075 62.4624C29.9766 62.5501 29.8883 62.5988 29.8568 62.6123C29.832 62.5867 29.8062 62.5746 29.7695 62.5622C29.7818 62.519 29.8062 62.4005 29.8376 62.2075C30.045 61.2631 30.5168 60.791 31.2714 60.791C31.8933 60.791 32.2068 61.1754 32.2068 61.9526Z" fill="#FFB000" fill-opacity="0.35"/>
    <path d="M42.566 16.5894C42.566 17.1614 42.3275 17.8145 41.8501 18.5485C41.3602 19.3136 40.7314 19.965 39.9579 20.5063C39.6499 20.718 39.4684 20.8299 39.4111 20.8299C39.3989 20.8299 39.3989 20.8234 39.3989 20.8113C39.3989 20.7681 39.5242 20.5992 39.7889 20.3201C41.0589 18.9464 41.7 18.0318 41.7 17.5662C41.7 17.1303 41.4912 16.913 41.0833 16.913C40.8571 16.913 40.6496 16.9752 40.4667 17.0992C40.3357 17.1869 40.2474 17.2356 40.216 17.2491C40.1912 17.2236 40.1653 17.2115 40.1287 17.199C40.1409 17.1559 40.1653 17.0374 40.1968 16.8443C40.4042 15.9 40.8759 15.4278 41.6305 15.4278C42.2524 15.4278 42.566 15.8122 42.566 16.5894Z" fill="#FFB000" fill-opacity="0.35"/>
    <path d="M41.1079 73.1329C40.8716 72.6097 40.8188 71.9167 40.9501 71.0542C41.08 70.1582 41.3834 69.3106 41.864 68.5058C42.0569 68.1888 42.176 68.0137 42.2281 67.9908C42.2393 67.9859 42.242 67.9919 42.247 68.003C42.2648 68.0425 42.2205 68.2472 42.0948 68.6084C41.5061 70.3734 41.3004 71.4668 41.4928 71.8927C41.6729 72.2914 41.9528 72.4066 42.3241 72.2433C42.5301 72.1527 42.6933 72.0128 42.8087 71.8261C42.8916 71.6934 42.952 71.6135 42.975 71.5886C43.0081 71.6021 43.0367 71.6028 43.0752 71.5995C43.0819 71.6439 43.1086 71.762 43.1598 71.9512C43.3611 72.8981 43.1267 73.5189 42.4397 73.821C41.8734 74.07 41.4291 73.8438 41.1079 73.1329Z" fill="#FFB000" fill-opacity="0.35"/>
    <path d="M50.3644 19.4677C50.3644 20.0397 50.1259 20.6928 49.6486 21.4268C49.1587 22.1919 48.5298 22.8433 47.7564 23.3846C47.4484 23.5963 47.2668 23.7082 47.2095 23.7082C47.1973 23.7082 47.1973 23.7017 47.1973 23.6896C47.1973 23.6464 47.3227 23.4775 47.5874 23.1984C48.8574 21.8247 49.4985 20.9101 49.4985 20.4445C49.4985 20.0086 49.2896 19.7913 48.8818 19.7913C48.6555 19.7913 48.4481 19.8535 48.2651 19.9775C48.1342 20.0652 48.0458 20.1139 48.0144 20.1274C47.9896 20.1019 47.9638 20.0898 47.9271 20.0773C47.9393 20.0342 47.9638 19.9157 47.9952 19.7226C48.2026 18.7783 48.6744 18.3061 49.429 18.3061C50.0509 18.3061 50.3644 18.6905 50.3644 19.4677Z" fill="#FFB000" fill-opacity="0.35"/>
    <path d="M9.12665 31.0832C9.01674 30.7865 9.01434 30.4035 9.11969 29.9342C9.22555 29.4465 9.42498 28.9918 9.72019 28.5675C9.83848 28.4005 9.91069 28.3087 9.94025 28.298C9.94656 28.2958 9.94782 28.2992 9.95015 28.3055C9.95844 28.3278 9.92619 28.4387 9.8432 28.6326C9.45164 29.5809 9.29648 30.1743 9.38594 30.4157C9.4697 30.6418 9.61922 30.7157 9.82973 30.6399C9.94652 30.5979 10.0416 30.5271 10.1122 30.4288C10.163 30.359 10.1992 30.3173 10.2129 30.3045C10.2306 30.3131 10.2462 30.3146 10.2675 30.3142C10.2695 30.3389 10.2797 30.4049 10.3005 30.5108C10.3749 31.0391 10.2222 31.3716 9.83269 31.5117C9.5117 31.6273 9.27598 31.4862 9.12665 31.0832Z" fill="#FFB000" fill-opacity="0.35"/>
    <path d="M14.3527 32.7021C14.3527 33.1433 14.1687 33.6472 13.7994 34.2134C13.4215 34.8036 12.9363 35.3062 12.3399 35.7237C12.1031 35.887 11.962 35.9734 11.9178 35.9734C11.9084 35.9734 11.9084 35.9683 11.9084 35.959C11.9084 35.9257 12.0051 35.7954 12.2093 35.5801C13.189 34.5204 13.6836 33.8148 13.6836 33.4556C13.6836 33.1193 13.5235 32.9517 13.2078 32.9517C13.0333 32.9517 12.8733 32.9997 12.7335 33.0954C12.6314 33.163 12.563 33.2006 12.5387 33.211C12.5199 33.1913 12.4997 33.182 12.4714 33.1726C12.4808 33.1393 12.4997 33.0477 12.5239 32.8987C12.685 32.1702 13.0481 31.806 13.63 31.806C14.1097 31.806 14.3527 32.1025 14.3527 32.7021Z" fill="#FFB000" fill-opacity="0.35"/>
    <path d="M23.891 68.0146C24.0928 68.0146 24.2784 67.9289 24.4605 67.7565C24.6665 67.5609 24.7697 67.3138 24.7697 67.0165C24.7697 66.6876 24.5832 66.5271 24.2114 66.5271C24.0491 66.5271 23.9064 66.5745 23.7837 66.6757C23.7837 66.4845 23.9185 66.1863 24.1916 65.7836C24.433 65.4071 24.6786 65.1098 24.9201 64.8905C24.9792 64.8242 24.9948 64.7692 24.975 64.7181C24.9594 64.6756 24.9201 64.6756 24.8565 64.7104C24.5394 64.8982 24.2037 65.2586 23.8472 65.7836C23.4391 66.3707 23.2372 66.8753 23.2372 67.3027C23.2372 67.776 23.4556 68.0146 23.891 68.0146Z" fill="#FFB000" fill-opacity="0.35"/>
    <path d="M20.7137 16.7797C20.7137 17.3517 20.4738 18.0035 19.9961 18.7375C19.5066 19.5026 18.8777 20.1554 18.1042 20.6966C17.7963 20.907 17.6147 21.0189 17.5574 21.0189C17.5452 21.0189 17.5452 21.0137 17.5452 21.0002C17.5452 20.9571 17.6706 20.7895 17.9352 20.5091C19.2052 19.1354 19.8463 18.2221 19.8463 17.7552C19.8463 17.3206 19.6389 17.1023 19.2297 17.1023C19.0034 17.1023 18.796 17.1642 18.6144 17.2899C18.4821 17.3762 18.3937 17.426 18.3623 17.4381C18.3375 17.4139 18.3117 17.4004 18.275 17.3883C18.2872 17.3452 18.3117 17.2263 18.3431 17.0346C18.5505 16.0889 19.0222 15.6168 19.7768 15.6168C20.3987 15.6168 20.7137 16.0026 20.7137 16.7797Z" fill="#FFB000" fill-opacity="0.35"/>
    <path d="M30.1167 10.2047C29.9942 10.4542 29.7505 10.6887 29.386 10.9098C29.0096 11.1419 28.5967 11.2961 28.145 11.3717C27.9662 11.3995 27.8634 11.4107 27.8386 11.3988C27.8333 11.3963 27.8344 11.394 27.8372 11.3881C27.8465 11.3693 27.9368 11.3222 28.1118 11.2548C28.9573 10.9192 29.4312 10.6539 29.5312 10.4501C29.6242 10.2606 29.5809 10.1223 29.4031 10.0373C29.3049 9.99036 29.2016 9.97428 29.0958 9.99143C29.0198 10.0016 28.9708 10.005 28.9546 10.0037C28.949 9.98805 28.9407 9.97681 28.9273 9.96392C28.9419 9.94763 28.9779 9.90087 29.0326 9.82376C29.3251 9.45425 29.6311 9.34619 29.9588 9.50283C30.2288 9.63193 30.283 9.86562 30.1167 10.2047Z" fill="#FFB000" fill-opacity="0.35"/>
    <path d="M35.6924 7.98765C35.8121 7.73683 36.0533 7.49969 36.4154 7.27476C36.7892 7.0386 37.2004 6.87994 37.6513 6.79953C37.8297 6.76978 37.9324 6.75755 37.9574 6.76917C37.9627 6.77165 37.9616 6.77392 37.9588 6.77983C37.9498 6.79876 37.86 6.84679 37.6858 6.91607C36.8439 7.26075 36.3729 7.53114 36.2752 7.73592C36.1842 7.92646 36.2291 8.06427 36.4077 8.14731C36.5065 8.19322 36.61 8.20819 36.7155 8.1899C36.7914 8.17889 36.8404 8.175 36.8566 8.17608C36.8624 8.19171 36.8708 8.20286 36.8843 8.2156C36.8699 8.23205 36.8344 8.2792 36.7806 8.35688C36.4921 8.7295 36.1873 8.84083 35.858 8.68772C35.5865 8.56154 35.5298 8.32844 35.6924 7.98765Z" fill="#FFB000" fill-opacity="0.35"/>
    <path d="M42.6879 48.5401C42.9093 48.5401 43.1129 48.4461 43.3126 48.2569C43.5386 48.0424 43.6518 47.7713 43.6518 47.4452C43.6518 47.0844 43.4472 46.9083 43.0393 46.9083C42.8613 46.9083 42.7048 46.9603 42.5702 47.0713C42.5702 46.8615 42.718 46.5344 43.0176 46.0928C43.2825 45.6798 43.5519 45.3536 43.8168 45.1131C43.8817 45.0403 43.8988 44.9799 43.8771 44.9239C43.8599 44.8773 43.8168 44.8773 43.7471 44.9155C43.3992 45.1214 43.0309 45.5168 42.6399 46.0928C42.1922 46.7368 41.9708 47.2903 41.9708 47.7592C41.9708 48.2784 42.2103 48.5401 42.6879 48.5401Z" fill="#FFB000" fill-opacity="0.35"/>
    <path d="M17.4429 53.36C17.6448 53.36 17.8304 53.2734 18.0125 53.1018C18.2187 52.9053 18.3219 52.6591 18.3219 52.3615C18.3219 52.0328 18.1354 51.8721 17.7633 51.8721C17.601 51.8721 17.4585 51.9188 17.3356 52.0209C17.3356 51.8288 17.4704 51.5314 17.7437 51.1279C17.985 50.7522 18.2306 50.4548 18.4721 50.2356C18.5315 50.1683 18.5469 50.114 18.5271 50.0631C18.5117 50.0198 18.4721 50.0198 18.4085 50.0554C18.0916 50.2432 17.7556 50.6034 17.3991 51.1279C16.9912 51.715 16.7893 52.2206 16.7893 52.6471C16.7893 53.1214 17.0075 53.36 17.4429 53.36Z" fill="#FFB000" fill-opacity="0.35"/>
    <path d="M53.8455 55.0069C53.867 54.9595 53.8935 54.9249 53.9152 54.8988C53.9406 54.8867 53.95 54.8905 53.95 54.912C53.9584 54.9332 53.9584 54.9726 53.95 55.0284C53.7408 56.1701 53.3942 56.7416 52.9164 56.7416C52.4038 56.7416 52.1522 56.3212 52.1522 55.4832C52.1522 54.4486 52.4518 53.3656 53.0548 52.2322C53.2075 51.9526 53.2941 51.8073 53.3291 51.8025C53.333 51.8025 53.3375 51.8073 53.3375 51.8111C53.3375 51.8669 53.2941 52.0263 53.2075 52.2919C52.8165 53.4737 52.6214 54.2976 52.6214 54.7702C52.6214 55.4142 52.7948 55.7413 53.1511 55.7413C53.3544 55.7413 53.5845 55.4963 53.8455 55.0069Z" fill="#FFB000" fill-opacity="0.35"/>
    <path d="M11.1802 55.3433C11.2117 55.2625 11.2501 55.2124 11.2812 55.1882C11.3059 55.1692 11.3248 55.1761 11.3318 55.2072C11.344 55.2383 11.344 55.2935 11.3318 55.3744C11.2553 56.0154 11.0671 56.5874 10.778 57.0972C10.4889 57.6005 10.1749 57.8558 9.83553 57.8558C9.45771 57.8609 9.17522 57.6748 8.98037 57.2769C8.79216 56.8855 8.70347 56.3567 8.72931 55.6915C8.76074 54.8832 9.01145 53.8456 9.47656 52.5773C9.87359 51.4955 10.2256 50.737 10.5325 50.3014C10.7273 50.0396 10.8408 49.9032 10.8723 49.898C10.8845 49.9412 10.8352 50.0893 10.7221 50.3512C10.036 51.8557 9.60891 53.2481 9.4399 54.5164C9.41406 54.6594 9.40847 54.8089 9.40847 54.9519C9.40847 55.9654 9.65954 56.4496 10.1749 56.4064C10.4833 56.3688 10.816 56.0154 11.1802 55.3433Z" fill="#FFB000" fill-opacity="0.35"/>
    <path d="M12.4483 23.6015C12.8956 23.6015 13.3472 24.03 13.7996 24.8867C14.2093 25.6727 14.4912 26.5487 14.6556 27.5166C14.6697 27.6097 14.6792 27.6612 14.6792 27.6793C14.6985 27.7025 14.7077 27.7025 14.7168 27.6793C14.726 27.6612 14.7495 27.6097 14.7832 27.5166C14.9006 26.683 15.1315 25.5848 15.4706 24.2157C15.7944 23.452 16.1479 23.0702 16.5288 23.0702C16.727 23.0702 16.92 23.2016 17.1172 23.4621C17.2866 23.6894 17.3713 23.8712 17.3713 24.0158C17.3713 24.1281 17.3428 24.2675 17.2827 24.4441C17.2071 24.6816 17.1172 24.7977 17.0139 24.7977C16.971 24.7977 16.8771 24.71 16.7362 24.5279C16.59 24.3461 16.4399 24.2582 16.2888 24.2582C15.9743 24.2582 15.6158 25.3473 15.2162 27.5256C15.0886 28.2198 14.9477 28.7089 14.7924 28.9927C14.6841 29.1877 14.5903 29.2857 14.5147 29.2857C14.4441 29.2857 14.4114 29.1978 14.4114 29.0211C14.4114 28.7319 14.2276 28.0471 13.8649 26.9721C13.4892 25.8597 13.239 25.3049 13.1121 25.3049C13.0183 25.3049 12.9571 25.3334 12.9336 25.3939C12.9048 25.4495 12.8292 25.4818 12.7027 25.4818C12.5565 25.4818 12.3688 25.3747 12.1326 25.1655C11.8978 24.9565 11.7844 24.7837 11.7844 24.6583C11.7844 24.6029 11.8795 24.4118 12.0764 24.0856C12.2746 23.7592 12.3962 23.6015 12.4483 23.6015Z" fill="#FFB000" fill-opacity="0.35"/>
    <path d="M72.2401 26.1108C72.2401 25.01 72.0641 24.121 71.7243 23.4488C71.7243 22.9956 72.0382 22.0565 72.6793 20.6331C72.8117 20.316 72.9629 20.3225 73.1197 20.6451C73.3027 21.031 73.7227 22.0876 74.383 23.816C75.0744 25.6197 75.4837 26.7315 75.5954 27.1605C75.6841 27.4603 75.7347 27.6962 75.7347 27.8513C75.7347 28.367 75.2434 28.0686 74.2765 26.9557C74.1634 26.8193 74.1061 26.8935 74.1061 27.174C74.1061 27.2793 74.4647 32.1851 75.1753 41.8903C75.8845 51.6006 76.2435 56.8857 76.2435 57.7371C76.2435 60.3801 75.8356 62.6861 75.0308 64.6517C74.8604 65.0621 74.7224 65.3536 74.6159 65.5343C74.4578 65.7892 74.3638 65.8202 74.3268 65.6341C74.2818 65.441 74.301 65.0175 74.383 64.3658C74.4839 63.4632 74.5398 62.4135 74.5398 61.2126C74.5398 60.1563 74.1564 54.2748 73.3899 43.5807C72.6231 32.8815 72.2401 27.0555 72.2401 26.1108Z" fill="#FFB000" fill-opacity="0.35"/>
    <path d="M45.4886 34.5379C45.4886 33.4502 45.3196 32.5546 44.9798 31.8582C44.9798 31.4172 45.2937 30.4846 45.9292 29.0598C46.0672 28.7427 46.2183 28.7496 46.3755 29.0733C46.5581 29.458 46.9782 30.5157 47.6315 32.2441C48.3299 34.0467 48.7325 35.1531 48.8456 35.57C48.9329 35.887 48.9832 36.1233 48.9832 36.2784C48.9832 36.7761 48.4992 36.478 47.532 35.3838C47.4188 35.2273 47.3616 35.2961 47.3616 35.589C47.3616 35.6874 47.6643 39.8727 48.2796 48.1354C48.8959 56.4034 49.2028 60.9613 49.2028 61.8128C49.2028 64.4247 48.795 66.7306 47.9779 68.7329C47.8075 69.1377 47.6699 69.4289 47.5687 69.6099C47.4066 69.8648 47.311 69.8959 47.2795 69.7084C47.2306 69.5167 47.2484 69.0932 47.3302 68.44C47.4311 67.5389 47.4814 66.4944 47.4814 65.3003C47.4814 64.2372 47.1486 59.0778 46.4816 49.8193C45.8161 40.569 45.4886 35.4701 45.4886 34.5379Z" fill="#FFB000" fill-opacity="0.35"/>
    <path d="M42.4962 59.9508C42.4962 62.0395 42.0189 63.6249 41.0628 64.707C39.5609 66.4354 37.3555 68.1137 34.4513 69.7302C30.7671 71.7567 27.3353 72.7698 24.156 72.7698C19.8812 72.7698 16.9404 70.7001 15.3254 66.5594C15.0101 65.7512 14.8533 64.7191 14.8533 63.4573C14.8533 62.6235 14.9162 61.7845 15.0538 60.9262C15.2612 59.6703 15.5451 58.564 15.9093 57.6193C16.0224 57.3333 16.1355 57.1834 16.2487 57.1834C16.3622 57.1834 16.3866 57.3765 16.3185 57.7557C16.1792 58.3398 16.0416 58.9239 15.9093 59.5083C15.6826 60.5473 15.5695 61.3124 15.5695 61.8032C15.5695 63.513 16.1478 65.0859 17.3046 66.5218C18.8759 68.4374 21.1456 69.3941 24.1245 69.3941C26.7326 69.3941 29.5041 68.7855 32.4397 67.5728C34.8033 66.6026 36.9271 65.3909 38.8133 63.9298C40.5156 62.6235 41.3711 61.6913 41.3711 61.1314C41.3711 61.0385 41.0191 60.311 40.3152 58.9377C39.4723 57.3198 38.8448 55.7413 38.4355 54.2112C38.2787 53.6959 38.0905 53.3477 37.8765 53.167C37.6624 52.9874 37.5559 52.7999 37.5559 52.5947C37.5559 52.4396 37.7127 51.6072 38.0277 50.1026C38.0769 49.8287 38.1464 49.6982 38.2351 49.6982C38.3294 49.6982 38.4425 49.76 38.5749 49.8964C39.0071 50.37 39.9374 51.3022 41.3711 52.6945C41.5974 52.9253 41.7105 53.1049 41.7105 53.2358C41.7105 53.3974 41.5782 53.4717 41.3013 53.4717C41.0069 53.4717 40.5662 53.3853 39.9758 53.2047C40.0194 53.3853 40.4982 54.3732 41.4025 56.1703C42.132 57.6314 42.4962 58.8932 42.4962 59.9508Z" fill="#FFB000" fill-opacity="0.35"/>
    <path d="M30.3665 55.8481C30.3159 55.817 30.3159 55.7483 30.3665 55.6485L31.4535 53.4358C31.523 53.298 31.5981 53.2361 31.6746 53.2361C31.7877 53.2361 32.2773 53.5287 33.145 54.1131C34.0057 54.6972 34.4394 55.0399 34.4394 55.1383C34.4394 55.5245 34.056 56.3203 33.2962 57.5388C33.2023 57.6939 33.1066 57.7316 33.0071 57.6573C32.1519 57.0097 31.2723 56.4135 30.3665 55.8481Z" fill="#FFB000" fill-opacity="0.35"/>
    <path d="M60.5804 53.4234L61.4482 51.6507C61.5177 51.5143 61.5927 51.4521 61.6744 51.4521C61.7876 51.4521 62.2719 51.7436 63.1379 52.3295C64 52.9135 64.4337 53.2548 64.4337 53.3546C64.4337 53.7404 64.0506 54.5352 63.2894 55.7483C63.2007 55.8982 63.1012 55.9344 63.0003 55.8657C62.2527 55.3193 61.4045 54.7404 60.4603 54.1318C60.1398 54.8402 59.8332 55.4433 59.5249 55.9413C59.4362 56.0964 59.3366 56.1341 59.2357 56.0584C58.3802 55.4122 57.5006 54.816 56.5948 54.2492C56.5456 54.2181 56.5456 54.1508 56.5948 54.051L57.6833 51.8369C57.7517 51.7005 57.8278 51.6386 57.9029 51.6317C58.0094 51.6386 58.4239 51.8746 59.147 52.3602C59.8768 52.8448 60.3542 53.1995 60.5804 53.4234Z" fill="#FFB000" fill-opacity="0.35"/>
    <path d="M57.9678 44.1675C58.065 43.8688 58.0826 43.563 58.0329 43.2576C57.9678 42.9187 57.8123 42.7582 57.5687 42.7582C57.4557 42.7582 57.2934 42.8154 57.0973 42.9187C56.8943 43.0323 56.7885 43.1369 56.7885 43.242C56.7885 43.483 57.1872 43.7973 57.9678 44.1675ZM57.3658 45.5263C56.3804 45.0197 55.8845 44.489 55.8845 43.9332C55.8845 43.2661 56.2023 42.6531 56.8202 42.0978C57.4471 41.5425 57.9678 41.3346 58.3828 41.4866C58.7322 41.6069 58.9035 41.9775 58.9035 42.5972C58.9035 43.1526 58.7887 43.7799 58.5541 44.4734C59.0499 44.7541 59.3682 44.9956 59.4898 45.1892C59.4898 45.4548 59.2692 45.8965 58.8226 46.5252C58.7005 46.3316 58.3986 46.0906 57.9186 45.8004C57.3657 46.5569 56.6665 47.25 55.8208 47.8683C54.8602 48.569 53.972 49.0997 53.167 49.4543C53.0043 49.5347 52.0686 49.8893 50.3772 50.5095C50.1087 50.6051 49.9374 50.6543 49.8474 50.6543C49.8067 50.6543 49.7909 50.6387 49.7909 50.6212C49.7909 50.5564 49.9374 50.429 50.2307 50.2439C51.4824 49.5101 52.7362 48.7697 53.9969 48.0221C55.503 47.1207 56.6258 46.2913 57.3658 45.5263Z" fill="#FFB000" fill-opacity="0.35"/>
    <path d="M56.0112 60.2651C56.0112 61.0154 55.7524 61.7326 55.2343 62.4099C54.6827 63.1493 54.0303 63.5188 53.2937 63.5188C52.526 63.5188 52.141 63.1493 52.141 62.4099C52.141 61.8774 52.443 61.0958 53.0441 60.0804C53.6562 59.0536 54.1761 58.5525 54.6107 58.5525C54.9847 58.5525 55.3178 58.7149 55.5968 59.0336C55.8671 59.3632 56.0112 59.7731 56.0112 60.2651ZM55.3472 61.1071C55.3472 60.4184 54.8608 60.0713 53.9063 60.0713C53.7709 60.0713 53.5438 60.285 53.2216 60.7172C52.9 61.1579 52.7444 61.4566 52.7444 61.63C52.8568 61.8774 53.2107 62 53.8228 62C54.8406 62 55.3472 61.7012 55.3472 61.1071Z" fill="#FFB000" fill-opacity="0.35"/>
    <path d="M50.9633 24.776C51.4218 24.776 51.655 24.9947 51.655 25.4413C51.655 25.6786 51.5922 25.9269 51.4654 26.1818C51.3834 26.3559 51.1763 26.6354 50.8432 27.0333C50.3658 27.5745 50.0523 27.9534 49.8885 28.1776C49.6186 28.5323 49.4601 28.7119 49.4164 28.7119C49.4112 28.7119 49.4042 28.6995 49.4042 28.6874C49.4042 28.6442 49.4478 28.5254 49.5299 28.3206C49.7125 27.8726 50.0016 27.4246 50.4165 26.959C50.6483 26.7041 50.8938 26.4423 51.1393 26.1818C51.0454 25.958 50.9004 25.8461 50.6934 25.8461C50.5488 25.8461 50.3658 25.8958 50.1584 26.0012C48.0783 27.0454 46.0733 27.5745 44.1434 27.5745C43.0808 27.5745 42.1191 27.3452 41.2584 26.8903C41.3841 27.2882 41.3405 27.7607 41.1261 28.3206C41.0444 28.5378 40.9885 28.6563 40.9501 28.6618C40.9312 28.6618 40.919 28.5254 40.919 28.2584C40.919 27.7607 40.8369 27.3314 40.6801 26.9711C40.6609 26.9279 40.3977 26.5355 39.9011 25.8081C39.9832 25.3049 40.1085 25.0569 40.2779 25.0569C40.2967 25.0569 40.4225 25.1432 40.6609 25.3239C40.9448 25.5532 41.234 25.7408 41.5287 25.8958C42.403 26.3494 43.3643 26.5801 44.4011 26.5801C45.4951 26.5801 46.5506 26.4247 47.5685 26.1131C48.1656 25.9269 48.8766 25.634 49.6989 25.2361C50.347 24.926 50.7684 24.776 50.9633 24.776Z" fill="#FFB000" fill-opacity="0.35"/>
    <path d="M27.337 58.9433C27.337 59.155 27.0671 59.6272 26.5321 60.3736C25.9224 61.2074 25.3456 61.8226 24.7988 62.2084C24.4468 62.4498 23.2833 62.8356 21.3041 63.3527C20.9521 63.439 20.7748 63.4698 20.7748 63.4511C20.8006 63.4145 20.9193 63.3147 21.1404 63.1461C21.3981 62.9479 22.102 62.5565 23.2519 61.9535C24.3581 61.3746 25.0058 61.0022 25.194 60.8402C25.2255 60.8026 25.2447 60.7715 25.2447 60.7404C25.2447 60.48 24.2572 60.3546 22.2969 60.3546C22.2902 60.3546 21.9138 60.3681 21.1648 60.3991C20.8076 60.4178 20.6316 60.3922 20.6316 60.3304C20.6316 60.2803 20.6752 60.1805 20.7625 60.0254L21.4609 58.8569C21.6683 58.5143 22.0392 58.3036 22.5793 58.2107C22.7745 58.1796 23.2274 58.1661 23.9433 58.1661C26.2063 58.1661 27.337 58.421 27.337 58.9433Z" fill="#FFB000" fill-opacity="0.35"/>
    <path d="M24.4511 13.8873C31.2263 11.3697 38.1336 8.79539 45.1854 6.17239C45.3177 6.12783 45.3942 6.11022 45.4186 6.12784C45.45 6.1534 45.4434 6.22109 45.3942 6.333C45.2496 6.68152 45.1295 6.89291 45.0408 6.97373C38.562 9.37429 31.5591 12.047 24.0366 14.9937C24.1169 14.6524 24.2563 14.2853 24.4511 13.8873Z" fill="#FFB000" fill-opacity="0.35"/>
    <path d="M37.6389 20.1581C37.8721 20.2877 37.9853 20.4441 37.9853 20.6182C37.9853 20.7422 37.928 20.8597 37.8149 20.9716C37.4887 21.2956 37.2869 21.4385 37.2052 21.3954C37.2118 21.2835 37.0987 21.1025 36.8724 20.8476C36.7153 20.7612 36.2938 20.7357 35.6091 20.7788C34.8796 20.8165 34.2888 20.9218 33.8429 21.0959C33.6913 21.1526 33.6233 21.2144 33.6163 21.2886C33.6233 21.4196 33.8621 21.6192 34.3461 21.8917C34.7103 22.1038 35.1876 22.3155 35.7662 22.5207C36.3511 22.7255 36.7031 22.8689 36.834 22.9362C37.5516 23.3531 37.8844 23.8253 37.8285 24.361C37.7957 24.6833 37.5882 25.0073 37.2052 25.3309C36.8602 25.6224 36.6214 25.7533 36.489 25.7223C34.4019 25.2245 32.9441 24.7334 32.0956 24.2491C31.3986 23.8443 31.0452 23.2723 31.0452 22.5259C31.0452 22.3898 31.0588 22.2589 31.0903 22.1414C31.2977 22.5086 31.775 22.912 32.5293 23.341C32.8498 23.5272 33.6547 23.8443 34.9557 24.2854C36.1126 24.6833 36.8288 24.914 37.1057 24.9817C37.2052 24.5969 36.841 24.1679 36.0117 23.6892C35.4387 23.4906 34.653 23.16 33.6547 22.7069C33.0136 22.3331 32.686 22.004 32.686 21.7125C32.686 21.4762 32.9057 21.2213 33.3394 20.9474C34.3709 20.2877 35.4457 19.9651 36.5641 19.9651C37.0484 19.9651 37.407 20.0272 37.6389 20.1581Z" fill="#FFB000" fill-opacity="0.35"/>
    <path d="M26.7151 52.1419C30.7688 50.6442 34.9674 49.102 39.3046 47.5045C39.4369 47.4599 39.512 47.4423 39.5368 47.4599C39.5679 47.4855 39.5626 47.5542 39.512 47.6665C39.3675 48.0198 39.2473 48.2371 39.1534 48.3058C39.1098 48.3559 37.0925 49.1141 33.1066 50.5876C29.0407 52.0863 26.7724 52.9688 26.3003 53.2496C26.3823 52.9135 26.5199 52.5464 26.7151 52.1419Z" fill="#FFB000" fill-opacity="0.35"/>
    <path d="M22.9008 28.1223C22.8417 28.2775 22.5127 28.5508 21.9143 28.9535C21.2366 29.4005 20.6429 29.6955 20.1359 29.8307C19.8119 29.9128 18.8561 29.8821 17.2664 29.7265C16.9855 29.6949 16.8483 29.6702 16.8535 29.6565C16.8826 29.6366 16.9971 29.5955 17.2055 29.5315C17.4479 29.4553 18.0719 29.3588 19.0793 29.2269C20.0482 29.101 20.6239 29.0024 20.8074 28.9348C20.8409 28.9157 20.8636 28.8981 20.8723 28.8753C20.9449 28.6843 20.2592 28.326 18.8275 27.7967C18.8237 27.7952 18.5442 27.7032 17.9899 27.5242C17.723 27.4412 17.6017 27.3749 17.619 27.3294C17.6329 27.2929 17.6936 27.2319 17.8006 27.1417L18.6364 26.4735C18.883 26.2793 19.2118 26.2235 19.633 26.3015C19.7841 26.3314 20.1171 26.4432 20.6408 26.6368C22.2925 27.2475 23.0465 27.7394 22.9008 28.1223Z" fill="#FFB000" fill-opacity="0.35"/>
    <path d="M21.0584 34.3744C21.2573 34.6151 21.3678 35.09 21.3814 35.8087C21.402 36.5234 21.297 36.9982 21.0826 37.2429C21.0197 37.3028 20.8059 37.3842 20.4369 37.4773C20.0656 37.5809 19.8519 37.6108 19.7922 37.5762C19.3594 37.279 18.9286 36.9693 18.4973 36.6599C17.9331 36.3039 17.4597 36.1199 17.08 36.099C15.8662 37.9938 14.447 39.6023 12.818 40.9184C12.3387 41.3056 11.8077 41.6433 11.225 41.9399C11.0195 42.0323 10.9077 42.0712 10.8758 42.057C10.8404 42.0142 11.1042 41.7589 11.6712 41.3008C12.6106 40.5418 13.624 39.4861 14.7254 38.1441C15.8259 36.8039 16.472 36.0546 16.6717 35.8933C17.3247 35.3657 17.9619 35.1587 18.5673 35.2765C18.8652 35.3345 19.2834 35.5521 19.8342 35.919C19.8701 35.5594 19.8119 35.2901 19.6583 35.1042C19.5819 35.0117 19.375 34.9739 19.0306 34.9844C18.6875 34.9938 18.5047 34.988 18.4849 34.964C18.4537 34.9263 18.5316 34.8434 18.7212 34.7103C19.8643 33.9831 20.6407 33.8686 21.0584 34.3744Z" fill="#FFB000" fill-opacity="0.35"/>
    <path d="M79.8856 31.6684C79.8856 32.3592 79.5965 33.1419 79.0249 34.0188C78.44 34.939 77.6802 35.7227 76.7552 36.369C76.3857 36.6242 76.1717 36.7538 76.1018 36.7538C76.0896 36.7538 76.083 36.7417 76.083 36.7292C76.083 36.6795 76.2412 36.4812 76.5481 36.1452C78.0758 34.4979 78.8422 33.3968 78.8422 32.8434C78.8422 32.3146 78.5982 32.0542 78.1016 32.0542C77.8303 32.0542 77.5859 32.1284 77.3652 32.2784C77.2028 32.3834 77.1019 32.4455 77.0635 32.4576C77.0321 32.4334 77.001 32.4144 76.9573 32.4024C76.9762 32.3457 77.001 32.2027 77.039 31.9734C77.2901 30.8415 77.8614 30.276 78.7605 30.276C79.5092 30.276 79.8856 30.7361 79.8856 31.6684Z" fill="#FFB000" fill-opacity="0.35"/>
    <path d="M54.341 72.5088C54.9752 72.5088 55.5468 72.8811 56.0503 73.6275C56.5591 74.3736 56.9107 75.349 57.1181 76.5552C57.1373 76.6806 57.1509 76.7548 57.1509 76.7738C57.1754 76.8101 57.1876 76.8101 57.2002 76.7738C57.2138 76.7548 57.2382 76.6806 57.2885 76.5552C57.3894 75.8347 57.6405 74.7594 58.0361 73.3346C58.4698 72.3091 58.9419 71.7993 59.4507 71.7993C59.7153 71.7993 59.973 71.9734 60.2363 72.3212C60.4626 72.6262 60.5757 72.869 60.5757 73.0621C60.5757 73.2106 60.5377 73.4034 60.456 73.6396C60.3565 73.9512 60.2363 74.1118 60.0984 74.1118C60.0411 74.1118 59.9158 73.9878 59.7206 73.746C59.5324 73.5032 59.3306 73.3847 59.1231 73.3847C58.6716 73.3847 58.2502 74.4479 57.8671 76.5687C57.6964 77.4943 57.5082 78.1475 57.3011 78.5264C57.1565 78.7882 57.0308 78.9178 56.9299 78.9178C56.836 78.9178 56.7923 78.8003 56.7923 78.5644C56.7923 78.1907 56.5779 77.4702 56.1442 76.3946C55.7106 75.318 55.4092 74.7836 55.2262 74.7836C55.1009 74.7836 55.0188 74.8216 54.9877 74.9024C54.9507 74.9767 54.8498 75.0199 54.6808 75.0199C54.4856 75.0199 54.2332 74.8769 53.9196 74.5974C53.606 74.317 53.4545 74.0876 53.4545 73.9201C53.4545 73.8448 53.5798 73.5896 53.8445 73.155C54.1078 72.7195 54.2716 72.5088 54.341 72.5088Z" fill="#FFB000" fill-opacity="0.35"/>
    <path d="M77.436 41.206C77.8697 41.206 78.3034 41.6164 78.7371 42.4433C79.1271 43.1949 79.4026 44.0342 79.5612 44.9678C79.5734 45.0542 79.5856 45.1108 79.5856 45.1229C79.5978 45.1475 79.6101 45.1475 79.6237 45.1229C79.6293 45.1108 79.6485 45.0542 79.6796 44.9678C79.7997 44.1651 80.0193 43.1085 80.3468 41.797C80.6538 41.0631 80.9932 40.6962 81.3644 40.6962C81.5526 40.6962 81.7422 40.8202 81.9304 41.0686C82.0942 41.2872 82.1759 41.4665 82.1759 41.6043C82.1759 41.7093 82.1431 41.8457 82.0872 42.0143C82.0121 42.2436 81.9304 42.3559 81.8295 42.3559C81.7858 42.3559 81.6971 42.2695 81.5592 42.0955C81.4216 41.9266 81.2771 41.8402 81.1325 41.8402C80.8294 41.8402 80.4844 42.8847 80.101 44.9799C79.9757 45.6452 79.8433 46.1122 79.6921 46.3913C79.5856 46.5774 79.4983 46.6707 79.4219 46.6707C79.359 46.6707 79.3279 46.5843 79.3279 46.4154C79.3279 46.1364 79.1519 45.4832 78.8 44.4456C78.4413 43.3759 78.1969 42.8467 78.0771 42.8467C77.9829 42.8467 77.927 42.8726 77.9012 42.9279C77.8764 42.9845 77.8069 43.0156 77.6815 43.0156C77.5422 43.0156 77.361 42.9089 77.1343 42.7106C76.9147 42.5055 76.8016 42.3435 76.8016 42.2264C76.8016 42.1694 76.8959 41.9832 77.0771 41.6717C77.2667 41.3615 77.3854 41.206 77.436 41.206Z" fill="#FFB000" fill-opacity="0.35"/>
    <path d="M79.0103 55.582C79.3937 55.582 79.7523 55.42 80.0921 55.0908C80.4877 54.7185 80.6881 54.2446 80.6881 53.6795C80.6881 53.0574 80.3309 52.7469 79.6269 52.7469C79.312 52.7469 79.0365 52.8402 78.8032 53.0333C78.8098 52.6661 79.0679 52.1007 79.5819 51.329C80.047 50.6141 80.5121 50.0486 80.972 49.6317C81.0851 49.5077 81.1166 49.4024 81.0782 49.3091C81.0467 49.2283 80.972 49.2214 80.8519 49.2905C80.2488 49.6507 79.6077 50.3346 78.9286 51.329C78.1499 52.4488 77.7665 53.4122 77.7665 54.2259C77.7665 55.1285 78.181 55.582 79.0103 55.582Z" fill="#FFB000" fill-opacity="0.35"/>
    <path d="M32.869 74.097C32.869 74.6689 32.6302 75.3221 32.1528 76.0561C31.6633 76.8198 31.0344 77.4726 30.261 78.0138C29.9526 78.2256 29.7714 78.3375 29.7138 78.3375C29.7016 78.3375 29.7016 78.3309 29.7016 78.3188C29.7016 78.2757 29.8273 78.1068 30.092 77.8277C31.3605 76.454 32.0013 75.5394 32.0013 75.0738C32.0013 74.6379 31.7942 74.4209 31.3864 74.4209C31.1598 74.4209 30.9527 74.4828 30.7697 74.6071C30.6374 74.6945 30.5501 74.7432 30.5187 74.7567C30.4928 74.7311 30.4684 74.719 30.43 74.7069C30.4436 74.6624 30.4684 74.5449 30.4994 74.3519C30.7069 73.4075 31.179 72.934 31.9332 72.934C32.5551 72.934 32.869 73.3198 32.869 74.097Z" fill="#FFB000" fill-opacity="0.35"/>
    <path d="M65.6712 68.2063V68.2022C66.7589 68.2022 67.8149 67.7852 68.8398 66.9521C69.134 66.7026 69.2856 65.8081 69.2856 64.2538C69.2856 63.3079 68.777 55.8977 67.7646 42.0266C66.7531 28.1496 66.2494 20.6259 66.2494 19.4579C66.2494 18.376 66.0558 17.4866 65.6712 16.7902C65.6712 16.3874 65.9913 15.4531 66.6391 13.9933C66.7087 13.8126 66.7774 13.7247 66.8469 13.7247C66.9165 13.7247 66.9978 13.8126 67.0925 13.9933C67.2735 14.397 67.7017 15.4531 68.3747 17.1641C69.0719 18.9596 69.4859 20.0729 69.6251 20.5024C69.6946 20.819 69.7315 21.0553 69.7315 21.2103C69.7315 21.7027 69.2471 21.4034 68.2926 20.2968C68.1794 20.1418 68.1233 20.2106 68.1233 20.5024C68.1233 20.5712 68.601 27.1432 69.5555 40.2169C70.5117 53.2981 70.9894 60.3991 70.9894 61.5248C70.9894 64.781 70.3986 67.3491 69.2161 69.2152C68.2104 70.7885 67.0296 71.5777 65.6712 71.5777V71.5719L65.6653 71.5777C64.4024 71.5777 63.1135 71.0298 61.7935 69.9355C61.0896 69.3511 60.5365 68.7236 60.1401 68.0463L56.394 69.618L56.3823 69.6122V69.6131C54.635 70.3525 53.3268 70.9311 52.4661 71.3348C50.7624 72.119 49.5883 72.7582 48.9522 73.2556C47.7831 74.1575 46.0861 75.8801 43.8552 78.4167C42.5294 79.9329 41.1902 80.6981 39.8519 80.6981C38.7264 80.6981 37.7459 80.1949 36.9036 79.1943C36.0178 78.1498 35.577 76.8748 35.577 75.3636C35.577 73.2871 36.4385 70.5763 38.1674 67.2389C38.3484 66.8891 38.4875 66.715 38.5889 66.715C38.6376 66.7282 38.6568 66.7714 38.6568 66.846C38.6568 67.1883 38.2864 68.3497 37.5313 70.3475C36.7838 72.3429 36.4134 73.9212 36.4134 75.0776C36.4134 75.9663 36.6204 76.6751 37.0419 77.2039C37.4827 77.7759 38.1046 78.0686 38.8957 78.0686C40.2977 78.0686 41.7123 77.359 43.1446 75.9547C44.0496 74.8845 44.9614 73.8209 45.8665 72.7524C47.0482 71.4343 48.6002 70.2597 50.5235 69.2268C51.649 68.6175 53.6033 67.7346 56.3823 66.5782V66.5882L56.394 66.5782L59.1663 65.4152C58.7707 64.34 58.5754 63.2408 58.5754 62.1275C58.5754 60.4422 58.8269 59.086 59.3297 58.0605C59.8384 57.0409 60.5055 56.5319 61.3351 56.5319C62.0701 56.5319 62.7615 57.1354 63.4093 58.354C63.9867 59.4292 64.2825 60.4115 64.2825 61.2885C64.2825 63.5127 63.6222 65.3414 62.3031 66.7647C63.2392 67.723 64.358 68.2022 65.6653 68.2022L65.6712 68.2063ZM63.4152 62.7359C63.4152 62.3637 63.1202 61.7917 62.5419 61.0142C61.9067 60.1802 61.3536 59.7699 60.8885 59.7699C60.5365 59.7699 60.1904 59.9821 59.851 60.4115C59.5124 60.8334 59.3423 61.238 59.3423 61.6226C59.3423 61.9467 59.525 62.5187 59.9012 63.327C60.2222 64.0349 60.4678 64.5141 60.6496 64.757C61.1273 64.5331 61.6745 64.2165 62.2897 63.7995C63.038 63.3029 63.4152 62.9481 63.4152 62.7359Z" fill="#FFB000" fill-opacity="0.35"/>
    <path d="M50.1897 79.5061C50.2143 79.4546 50.2345 79.4206 50.2592 79.4074C50.2725 79.3904 50.283 79.3934 50.2897 79.4178C50.3 79.4376 50.3 79.4752 50.2897 79.5262C50.2382 79.948 50.1181 80.3249 49.9287 80.6546C49.7363 80.9881 49.5305 81.1541 49.3067 81.1541C49.063 81.1615 48.8743 81.0353 48.7468 80.7772C48.6201 80.519 48.5649 80.1723 48.5819 79.7371C48.6029 79.2 48.8123 78.4079 49.2077 77.3678C49.5507 76.4538 49.8466 75.8076 50.1009 75.4233C50.2143 75.2537 50.2859 75.1652 50.3239 75.1586C50.3307 75.1858 50.3 75.2877 50.2248 75.4543C49.6639 76.6885 49.3039 77.6842 49.1382 78.4419C49.0696 78.7442 49.0391 79.0201 49.0391 79.2614C49.0391 79.6013 49.101 79.8559 49.2277 80.0262C49.3239 80.1657 49.424 80.2231 49.5305 80.2026C49.7468 80.1584 49.9667 79.9274 50.1897 79.5061Z" fill="#FFB000" fill-opacity="0.35"/>
    <circle cx="44" cy="44" r="39.5" stroke="#FFB000" stroke-opacity="0.6"/>
    </svg>
    